<svg xmlns="http://www.w3.org/2000/svg" viewBox="0 0 256 256"><defs><style>.a{fill:#00a0e3;}.b{fill:#00adee;}.c{fill:#5acaf4;}.d{fill:#fff;}</style></defs><title>Default</title><circle class="a" cx="128" cy="128" r="128"/><path class="a" d="M218.5,37.39a128,128,0,0,0-181,0l90.5,90.5Z" transform="translate(0 0.11)"/><path class="a" d="M37.5,37.39a128,128,0,0,0,0,181l90.5-90.5Z" transform="translate(0 0.11)"/><path class="b" d="M37.5,218.39a128,128,0,0,0,181,0L128,127.89Z" transform="translate(0 0.11)"/><path class="c" d="M218.5,37.39,128,127.89l90.5,90.5a128,128,0,0,0,0-181Z" transform="translate(0 0.11)"/><path class="d" d="M77.61,205.21a15.19,15.19,0,0,1-21.9-1c-5-5.8-4.1-14.54,1.44-19.9l50.61-49a8.34,8.34,0,0,0,0-12.08L56.44,73.66a14.2,14.2,0,0,1,0-20.54l.08-.08a15.35,15.35,0,0,1,21.21,0l68,65.77a14.18,14.18,0,0,1,0,20.52l-.19.19Z" transform="translate(0 0.11)"/><path class="d" d="M204,197.39a12.18,12.18,0,0,1-12.32,12H139a12.18,12.18,0,0,1-12.32-12v-3.94a12.18,12.18,0,0,1,12.32-12h52.69a12.18,12.18,0,0,1,12.32,12Z" transform="translate(0 0.11)"/></svg>