<svg xmlns="http://www.w3.org/2000/svg" viewBox="0 0 1024 1024"><defs><style>.a{fill:#fff;}.b{fill:#232323;}.c{fill:#00a0e3;}.d{fill:#00adee;}.e{fill:#5acaf4;}</style></defs><title>Apple</title><rect class="a" width="1024" height="1024"/><path class="b" d="M0,799v225H225C100.74,1024,0,923.26,0,799Z"/><path class="b" d="M225,0H0V225C0,100.74,100.74,0,225,0Z"/><path class="b" d="M799,0c124.28,0,225,100.74,225,225V0Z"/><path class="b" d="M799,1024h225V799C1024,923.26,923.26,1024,799,1024Z"/><circle class="c" cx="512" cy="512" r="446"/><path class="c" d="M827.34,196.66C746.5,116.17,635,66,512,66c-123.35,0-234.5,49.83-315.34,130.66L512,512Z"/><path class="c" d="M196.66,196.66a445.86,445.86,0,0,0,0,630.68L512,512Z"/><path class="d" d="M196.66,827.34a445.86,445.86,0,0,0,630.68,0L512,512Z"/><path class="e" d="M827.34,196.66,512,512,827.34,827.34A444.57,444.57,0,0,0,958,512C958,389,907.83,277.5,827.34,196.66Z"/><path class="a" d="M336.43,781.41c-21.29,20.59-56.52,19.49-76.32-3.31-17.55-20.22-14.26-50.66,5-69.33L441.49,538.16a29.1,29.1,0,0,0,0-42.11L262.65,323a49.44,49.44,0,0,1,0-71.54l.28-.28a53.5,53.5,0,0,1,73.91,0L573.69,480.35a49.41,49.41,0,0,1,0,71.52l-.66.63Z"/><path class="a" d="M776.67,754.15c0,23.15-19.22,41.92-42.93,41.92H550.16c-23.72,0-42.94-18.77-42.94-41.92V740.42c0-23.15,19.22-41.91,42.94-41.91H733.74c23.71,0,42.93,18.76,42.93,41.91Z"/></svg>